<?xml version="1.0" encoding="UTF-8" ?>
<svg version="1.1" width="125" height="125" xmlns="http://www.w3.org/2000/svg" shape-rendering="crispEdges">
<rect x="10" y="0" width="1" height="1" fill="#8D8A2A" opacity="0.341176" />
<rect x="11" y="0" width="1" height="1" fill="#AAA733" opacity="0.752941" />
<rect x="12" y="0" width="1" height="1" fill="#CCC83D" opacity="0.937255" />
<rect x="13" y="0" width="1" height="1" fill="#F0EB48" opacity="0.996078" />
<rect x="14" y="0" width="97" height="4" fill="#FFFA4C" />
<rect x="111" y="0" width="1" height="1" fill="#F0EB48" opacity="0.996078" />
<rect x="112" y="0" width="1" height="1" fill="#CCC83D" opacity="0.937255" />
<rect x="113" y="0" width="1" height="1" fill="#AAA733" opacity="0.752941" />
<rect x="114" y="0" width="1" height="1" fill="#8D8A2A" opacity="0.341176" />
<rect x="8" y="1" width="1" height="1" fill="#9D9A2F" opacity="0.611765" />
<rect x="9" y="1" width="1" height="1" fill="#E3DF44" opacity="0.984314" />
<rect x="10" y="1" width="4" height="3" fill="#FFFA4C" />
<rect x="111" y="1" width="4" height="3" fill="#FFFA4C" />
<rect x="115" y="1" width="1" height="1" fill="#E3DF44" opacity="0.984314" />
<rect x="116" y="1" width="1" height="1" fill="#9D9A2F" opacity="0.611765" />
<rect x="6" y="2" width="1" height="1" fill="#8D8A2A" opacity="0.341176" />
<rect x="7" y="2" width="1" height="1" fill="#D7D340" opacity="0.964706" />
<rect x="8" y="2" width="2" height="3" fill="#FFFA4C" />
<rect x="115" y="2" width="2" height="3" fill="#FFFA4C" />
<rect x="117" y="2" width="1" height="1" fill="#D7D340" opacity="0.964706" />
<rect x="118" y="2" width="1" height="1" fill="#8D8A2A" opacity="0.341176" />
<rect x="5" y="3" width="1" height="1" fill="#9D9A2F" opacity="0.611765" />
<rect x="6" y="3" width="2" height="3" fill="#FFFA4C" />
<rect x="117" y="3" width="2" height="3" fill="#FFFA4C" />
<rect x="119" y="3" width="1" height="1" fill="#9D9A2F" opacity="0.611765" />
<rect x="4" y="4" width="1" height="1" fill="#9D9A2F" opacity="0.611765" />
<rect x="5" y="4" width="1" height="5" fill="#FFFA4C" />
<rect x="10" y="4" width="1" height="1" fill="#F9F44A" />
<rect x="11" y="4" width="1" height="1" fill="#93902C" />
<rect x="12" y="4" width="1" height="1" fill="#57551A" />
<rect x="13" y="4" width="1" height="1" fill="#111105" />
<rect x="14" y="4" width="44" height="2" fill="#000000" />
<rect x="58" y="4" width="1" height="2" fill="#FFFA4C" />
<rect x="59" y="4" width="52" height="4" fill="#000000" />
<rect x="111" y="4" width="1" height="1" fill="#111105" />
<rect x="112" y="4" width="1" height="1" fill="#57551A" />
<rect x="113" y="4" width="1" height="1" fill="#93902C" />
<rect x="114" y="4" width="1" height="1" fill="#F9F44A" />
<rect x="119" y="4" width="1" height="5" fill="#FFFA4C" />
<rect x="120" y="4" width="1" height="1" fill="#9D9A2F" opacity="0.611765" />
<rect x="3" y="5" width="1" height="1" fill="#9D9A2F" opacity="0.611765" />
<rect x="4" y="5" width="1" height="5" fill="#FFFA4C" />
<rect x="8" y="5" width="1" height="1" fill="#FFFA4C" />
<rect x="9" y="5" width="1" height="1" fill="#928F2C" />
<rect x="10" y="5" width="1" height="1" fill="#27260C" />
<rect x="11" y="5" width="3" height="27" fill="#000000" />
<rect x="111" y="5" width="3" height="41" fill="#000000" />
<rect x="114" y="5" width="1" height="1" fill="#27260C" />
<rect x="115" y="5" width="1" height="1" fill="#928F2C" />
<rect x="116" y="5" width="1" height="1" fill="#FFFA4C" />
<rect x="120" y="5" width="1" height="5" fill="#FFFA4C" />
<rect x="121" y="5" width="1" height="1" fill="#9D9A2F" opacity="0.611765" />
<rect x="2" y="6" width="1" height="1" fill="#8D8A2A" opacity="0.341176" />
<rect x="3" y="6" width="1" height="113" fill="#FFFA4C" />
<rect x="6" y="6" width="1" height="1" fill="#FFFA4C" />
<rect x="7" y="6" width="1" height="1" fill="#F9F44A" />
<rect x="8" y="6" width="1" height="1" fill="#62601D" />
<rect x="9" y="6" width="2" height="86" fill="#000000" />
<rect x="14" y="6" width="21" height="4" fill="#000000" />
<rect x="35" y="6" width="1" height="2" fill="#FFFA4C" />
<rect x="36" y="6" width="23" height="4" fill="#000000" />
<rect x="114" y="6" width="2" height="24" fill="#000000" />
<rect x="116" y="6" width="1" height="1" fill="#62601D" />
<rect x="117" y="6" width="1" height="1" fill="#F9F44A" />
<rect x="118" y="6" width="1" height="1" fill="#FFFA4C" />
<rect x="121" y="6" width="1" height="113" fill="#FFFA4C" />
<rect x="122" y="6" width="1" height="1" fill="#FFFA4C" opacity="0.341176" />
<rect x="2" y="7" width="1" height="1" fill="#D7D340" opacity="0.964706" />
<rect x="6" y="7" width="1" height="1" fill="#F9F44A" />
<rect x="7" y="7" width="1" height="1" fill="#62601D" />
<rect x="8" y="7" width="1" height="37" fill="#000000" />
<rect x="116" y="7" width="1" height="110" fill="#000000" />
<rect x="117" y="7" width="1" height="1" fill="#62601D" />
<rect x="118" y="7" width="1" height="1" fill="#F9F44A" />
<rect x="122" y="7" width="1" height="1" fill="#D7D340" opacity="0.964706" />
<rect x="1" y="8" width="1" height="1" fill="#9D9A2F" opacity="0.611765" />
<rect x="2" y="8" width="1" height="109" fill="#FFFA4C" />
<rect x="6" y="8" width="1" height="1" fill="#62601D" />
<rect x="7" y="8" width="1" height="36" fill="#000000" />
<rect x="35" y="8" width="1" height="68" fill="#000000" />
<rect x="59" y="8" width="14" height="5" fill="#000000" />
<rect x="73" y="8" width="2" height="2" fill="#FFFA4C" />
<rect x="75" y="8" width="36" height="16" fill="#000000" />
<rect x="117" y="8" width="1" height="109" fill="#000000" />
<rect x="118" y="8" width="1" height="1" fill="#62601D" />
<rect x="122" y="8" width="1" height="109" fill="#FFFA4C" />
<rect x="123" y="8" width="1" height="1" fill="#9D9A2F" opacity="0.611765" />
<rect x="1" y="9" width="1" height="1" fill="#E3DF44" opacity="0.984314" />
<rect x="5" y="9" width="1" height="1" fill="#928F2C" />
<rect x="6" y="9" width="1" height="87" fill="#000000" />
<rect x="118" y="9" width="1" height="107" fill="#000000" />
<rect x="119" y="9" width="1" height="1" fill="#928F2C" />
<rect x="123" y="9" width="1" height="1" fill="#E3DF44" opacity="0.984314" />
<rect x="0" y="10" width="1" height="1" fill="#8D8A2A" opacity="0.341176" />
<rect x="1" y="10" width="1" height="105" fill="#FFFA4C" />
<rect x="4" y="10" width="1" height="1" fill="#F9F44A" />
<rect x="5" y="10" width="1" height="1" fill="#27260C" />
<rect x="14" y="10" width="18" height="4" fill="#000000" />
<rect x="32" y="10" width="2" height="1" fill="#FFFA4C" />
<rect x="34" y="10" width="1" height="111" fill="#000000" />
<rect x="36" y="10" width="4" height="33" fill="#000000" />
<rect x="40" y="10" width="1" height="2" fill="#FFFA4C" />
<rect x="41" y="10" width="18" height="2" fill="#000000" />
<rect x="73" y="10" width="2" height="111" fill="#000000" />
<rect x="119" y="10" width="1" height="1" fill="#27260C" />
<rect x="120" y="10" width="1" height="1" fill="#F9F44A" />
<rect x="123" y="10" width="1" height="105" fill="#FFFA4C" />
<rect x="124" y="10" width="1" height="1" fill="#8D8A2A" opacity="0.341176" />
<rect x="0" y="11" width="1" height="1" fill="#AAA733" opacity="0.752941" />
<rect x="4" y="11" width="1" height="1" fill="#93902C" />
<rect x="5" y="11" width="1" height="103" fill="#000000" />
<rect x="32" y="11" width="1" height="18" fill="#000000" />
<rect x="33" y="11" width="1" height="1" fill="#FFFA4C" />
<rect x="119" y="11" width="1" height="68" fill="#000000" />
<rect x="120" y="11" width="1" height="1" fill="#93902C" />
<rect x="124" y="11" width="1" height="1" fill="#AAA733" opacity="0.752941" />
<rect x="0" y="12" width="1" height="1" fill="#CCC83D" opacity="0.937255" />
<rect x="4" y="12" width="1" height="1" fill="#57551A" />
<rect x="33" y="12" width="1" height="109" fill="#000000" />
<rect x="40" y="12" width="16" height="1" fill="#000000" />
<rect x="56" y="12" width="1" height="2" fill="#FFFA4C" />
<rect x="57" y="12" width="2" height="24" fill="#000000" />
<rect x="120" y="12" width="1" height="1" fill="#57551A" />
<rect x="124" y="12" width="1" height="1" fill="#CCC83D" opacity="0.937255" />
<rect x="0" y="13" width="1" height="1" fill="#F0EB48" opacity="0.996078" />
<rect x="4" y="13" width="1" height="1" fill="#111105" />
<rect x="40" y="13" width="15" height="18" fill="#000000" />
<rect x="55" y="13" width="1" height="1" fill="#FFFA4C" />
<rect x="59" y="13" width="1" height="108" fill="#000000" />
<rect x="60" y="13" width="2" height="1" fill="#FFFA4C" />
<rect x="62" y="13" width="11" height="7" fill="#000000" />
<rect x="120" y="13" width="1" height="1" fill="#111105" />
<rect x="124" y="13" width="1" height="1" fill="#F0EB48" opacity="0.996078" />
<rect x="0" y="14" width="1" height="97" fill="#FFFA4C" />
<rect x="4" y="14" width="1" height="64" fill="#000000" />
<rect x="14" y="14" width="16" height="13" fill="#000000" />
<rect x="30" y="14" width="1" height="2" fill="#FFFA4C" />
<rect x="31" y="14" width="1" height="14" fill="#000000" />
<rect x="55" y="14" width="2" height="1" fill="#000000" />
<rect x="60" y="14" width="1" height="1" fill="#FFFA4C" />
<rect x="61" y="14" width="1" height="7" fill="#000000" />
<rect x="120" y="14" width="1" height="97" fill="#000000" />
<rect x="124" y="14" width="1" height="97" fill="#FFFA4C" />
<rect x="55" y="15" width="2" height="1" fill="#FFFA4C" />
<rect x="60" y="15" width="1" height="106" fill="#000000" />
<rect x="30" y="16" width="1" height="13" fill="#000000" />
<rect x="55" y="16" width="2" height="47" fill="#000000" />
<rect x="62" y="20" width="6" height="24" fill="#000000" />
<rect x="68" y="20" width="2" height="1" fill="#FFFA4C" />
<rect x="70" y="20" width="3" height="33" fill="#000000" />
<rect x="61" y="21" width="1" height="2" fill="#FFFA4C" />
<rect x="68" y="21" width="2" height="52" fill="#000000" />
<rect x="61" y="23" width="1" height="18" fill="#000000" />
<rect x="75" y="24" width="3" height="49" fill="#000000" />
<rect x="78" y="24" width="2" height="1" fill="#FFFA4C" />
<rect x="80" y="24" width="7" height="23" fill="#000000" />
<rect x="87" y="24" width="2" height="1" fill="#FFFA4C" />
<rect x="89" y="24" width="22" height="2" fill="#000000" />
<rect x="78" y="25" width="2" height="10" fill="#000000" />
<rect x="87" y="25" width="2" height="1" fill="#000000" />
<rect x="87" y="26" width="1" height="1" fill="#000000" />
<rect x="88" y="26" width="1" height="2" fill="#FFFA4C" />
<rect x="89" y="26" width="4" height="3" fill="#000000" />
<rect x="93" y="26" width="1" height="2" fill="#FFFA4C" />
<rect x="94" y="26" width="17" height="2" fill="#000000" />
<rect x="14" y="27" width="10" height="1" fill="#000000" />
<rect x="24" y="27" width="1" height="2" fill="#FFFA4C" />
<rect x="25" y="27" width="5" height="5" fill="#000000" />
<rect x="87" y="27" width="1" height="1" fill="#FFFA4C" />
<rect x="14" y="28" width="9" height="4" fill="#000000" />
<rect x="23" y="28" width="1" height="1" fill="#FFFA4C" />
<rect x="31" y="28" width="1" height="3" fill="#FFF54C" />
<rect x="87" y="28" width="2" height="93" fill="#000000" />
<rect x="93" y="28" width="9" height="30" fill="#000000" />
<rect x="102" y="28" width="2" height="2" fill="#FFFA4C" />
<rect x="104" y="28" width="5" height="15" fill="#000000" />
<rect x="109" y="28" width="1" height="2" fill="#FFFA4C" />
<rect x="110" y="28" width="1" height="53" fill="#000000" />
<rect x="23" y="29" width="2" height="92" fill="#000000" />
<rect x="30" y="29" width="1" height="2" fill="#FFF54C" />
<rect x="32" y="29" width="1" height="2" fill="#FFF54C" />
<rect x="89" y="29" width="2" height="1" fill="#000000" />
<rect x="91" y="29" width="1" height="2" fill="#FFFA4C" />
<rect x="92" y="29" width="1" height="92" fill="#000000" />
<rect x="89" y="30" width="1" height="91" fill="#000000" />
<rect x="90" y="30" width="1" height="1" fill="#FFFA4C" />
<rect x="102" y="30" width="2" height="13" fill="#000000" />
<rect x="109" y="30" width="1" height="69" fill="#000000" />
<rect x="114" y="30" width="1" height="2" fill="#FFFA4C" />
<rect x="115" y="30" width="1" height="1" fill="#000000" />
<rect x="30" y="31" width="3" height="41" fill="#000000" />
<rect x="40" y="31" width="9" height="1" fill="#000000" />
<rect x="49" y="31" width="1" height="2" fill="#FFFA4C" />
<rect x="50" y="31" width="5" height="1" fill="#000000" />
<rect x="90" y="31" width="2" height="90" fill="#000000" />
<rect x="115" y="31" width="1" height="1" fill="#FFFA4C" />
<rect x="11" y="32" width="2" height="88" fill="#000000" />
<rect x="13" y="32" width="2" height="1" fill="#FFFA4C" />
<rect x="15" y="32" width="8" height="9" fill="#000000" />
<rect x="25" y="32" width="2" height="1" fill="#FFFA4C" />
<rect x="27" y="32" width="3" height="67" fill="#000000" />
<rect x="40" y="32" width="5" height="1" fill="#000000" />
<rect x="45" y="32" width="2" height="2" fill="#FFFA4C" />
<rect x="47" y="32" width="2" height="47" fill="#000000" />
<rect x="50" y="32" width="1" height="1" fill="#FFFA4C" />
<rect x="51" y="32" width="4" height="19" fill="#000000" />
<rect x="114" y="32" width="2" height="5" fill="#000000" />
<rect x="13" y="33" width="2" height="19" fill="#000000" />
<rect x="25" y="33" width="1" height="88" fill="#000000" />
<rect x="26" y="33" width="1" height="1" fill="#FFFA4C" />
<rect x="40" y="33" width="1" height="1" fill="#000000" />
<rect x="41" y="33" width="1" height="2" fill="#FFFA4C" />
<rect x="42" y="33" width="3" height="31" fill="#000000" />
<rect x="49" y="33" width="2" height="18" fill="#000000" />
<rect x="26" y="34" width="1" height="87" fill="#000000" />
<rect x="40" y="34" width="1" height="1" fill="#FFFA4C" />
<rect x="45" y="34" width="2" height="18" fill="#000000" />
<rect x="40" y="35" width="2" height="86" fill="#000000" />
<rect x="78" y="35" width="1" height="1" fill="#000000" />
<rect x="79" y="35" width="1" height="2" fill="#FFFA4C" />
<rect x="57" y="36" width="1" height="9" fill="#000000" />
<rect x="58" y="36" width="1" height="1" fill="#FFFA4C" />
<rect x="78" y="36" width="1" height="1" fill="#FFFA4C" />
<rect x="58" y="37" width="1" height="8" fill="#000000" />
<rect x="78" y="37" width="2" height="84" fill="#000000" />
<rect x="114" y="37" width="1" height="9" fill="#000000" />
<rect x="115" y="37" width="1" height="1" fill="#FFFA4C" />
<rect x="115" y="38" width="1" height="81" fill="#000000" />
<rect x="15" y="41" width="4" height="8" fill="#000000" />
<rect x="19" y="41" width="2" height="2" fill="#FFFA4C" />
<rect x="21" y="41" width="2" height="80" fill="#000000" />
<rect x="61" y="41" width="1" height="2" fill="#FFFA4C" />
<rect x="19" y="43" width="2" height="2" fill="#000000" />
<rect x="36" y="43" width="2" height="1" fill="#FFFA4C" />
<rect x="38" y="43" width="2" height="35" fill="#000000" />
<rect x="61" y="43" width="1" height="1" fill="#000000" />
<rect x="102" y="43" width="1" height="38" fill="#000000" />
<rect x="103" y="43" width="2" height="1" fill="#FFFA4C" />
<rect x="105" y="43" width="4" height="40" fill="#000000" />
<rect x="7" y="44" width="2" height="1" fill="#FFFA4C" />
<rect x="36" y="44" width="1" height="33" fill="#000000" />
<rect x="37" y="44" width="1" height="1" fill="#FFFA4C" />
<rect x="61" y="44" width="2" height="2" fill="#FFF54C" />
<rect x="63" y="44" width="5" height="24" fill="#000000" />
<rect x="103" y="44" width="2" height="39" fill="#000000" />
<rect x="7" y="45" width="2" height="51" fill="#000000" />
<rect x="19" y="45" width="1" height="11" fill="#000000" />
<rect x="20" y="45" width="1" height="2" fill="#FFFA4C" />
<rect x="37" y="45" width="1" height="52" fill="#000000" />
<rect x="57" y="45" width="2" height="2" fill="#FFFA4C" />
<rect x="61" y="46" width="2" height="20" fill="#000000" />
<rect x="111" y="46" width="2" height="74" fill="#000000" />
<rect x="113" y="46" width="2" height="2" fill="#FFFA4C" />
<rect x="20" y="47" width="1" height="59" fill="#000000" />
<rect x="57" y="47" width="2" height="16" fill="#000000" />
<rect x="80" y="47" width="3" height="2" fill="#FFF54C" />
<rect x="83" y="47" width="4" height="2" fill="#000000" />
<rect x="113" y="48" width="2" height="71" fill="#000000" />
<rect x="15" y="49" width="2" height="19" fill="#000000" />
<rect x="17" y="49" width="2" height="1" fill="#FFFA4C" />
<rect x="80" y="49" width="3" height="2" fill="#000000" />
<rect x="83" y="49" width="2" height="1" fill="#FFFA4C" />
<rect x="85" y="49" width="2" height="72" fill="#000000" />
<rect x="17" y="50" width="2" height="6" fill="#000000" />
<rect x="83" y="50" width="2" height="2" fill="#000000" />
<rect x="49" y="51" width="1" height="70" fill="#000000" />
<rect x="50" y="51" width="2" height="1" fill="#FFFA4C" />
<rect x="52" y="51" width="3" height="70" fill="#000000" />
<rect x="80" y="51" width="2" height="70" fill="#000000" />
<rect x="82" y="51" width="1" height="2" fill="#FFFA4C" />
<rect x="13" y="52" width="2" height="2" fill="#FFF54C" />
<rect x="45" y="52" width="1" height="2" fill="#FFFA4C" />
<rect x="46" y="52" width="1" height="1" fill="#000000" />
<rect x="50" y="52" width="2" height="65" fill="#000000" />
<rect x="83" y="52" width="1" height="1" fill="#FFFA4C" />
<rect x="84" y="52" width="1" height="40" fill="#000000" />
<rect x="46" y="53" width="1" height="1" fill="#FFFA4C" />
<rect x="70" y="53" width="1" height="2" fill="#FFFA4C" />
<rect x="71" y="53" width="2" height="1" fill="#000000" />
<rect x="82" y="53" width="2" height="38" fill="#000000" />
<rect x="13" y="54" width="2" height="61" fill="#000000" />
<rect x="45" y="54" width="2" height="10" fill="#000000" />
<rect x="71" y="54" width="1" height="1" fill="#FFFA4C" />
<rect x="72" y="54" width="1" height="37" fill="#000000" />
<rect x="70" y="55" width="2" height="36" fill="#000000" />
<rect x="17" y="56" width="1" height="5" fill="#000000" />
<rect x="18" y="56" width="2" height="2" fill="#FFFA4C" />
<rect x="18" y="58" width="2" height="4" fill="#000000" />
<rect x="93" y="58" width="8" height="7" fill="#000000" />
<rect x="101" y="58" width="1" height="2" fill="#FFFA4C" />
<rect x="101" y="60" width="1" height="11" fill="#000000" />
<rect x="17" y="61" width="1" height="2" fill="#FFFA4C" />
<rect x="18" y="62" width="2" height="1" fill="#FFFA4C" />
<rect x="17" y="63" width="2" height="10" fill="#000000" />
<rect x="19" y="63" width="1" height="1" fill="#FFFA4C" />
<rect x="55" y="63" width="1" height="58" fill="#000000" />
<rect x="56" y="63" width="2" height="1" fill="#FFFA4C" />
<rect x="58" y="63" width="1" height="58" fill="#000000" />
<rect x="19" y="64" width="1" height="42" fill="#000000" />
<rect x="42" y="64" width="4" height="1" fill="#FFFA4C" />
<rect x="46" y="64" width="1" height="47" fill="#000000" />
<rect x="56" y="64" width="2" height="11" fill="#000000" />
<rect x="42" y="65" width="2" height="1" fill="#FFFA4C" />
<rect x="44" y="65" width="2" height="56" fill="#000000" />
<rect x="93" y="65" width="5" height="12" fill="#000000" />
<rect x="98" y="65" width="1" height="2" fill="#FFFA4C" />
<rect x="99" y="65" width="2" height="6" fill="#000000" />
<rect x="42" y="66" width="2" height="47" fill="#000000" />
<rect x="61" y="66" width="2" height="1" fill="#FFFA4C" />
<rect x="61" y="67" width="1" height="54" fill="#000000" />
<rect x="62" y="67" width="1" height="1" fill="#FFFA4C" />
<rect x="98" y="67" width="1" height="54" fill="#000000" />
<rect x="15" y="68" width="1" height="2" fill="#FFFA4C" />
<rect x="16" y="68" width="1" height="5" fill="#000000" />
<rect x="62" y="68" width="4" height="53" fill="#000000" />
<rect x="66" y="68" width="2" height="1" fill="#FFFA4C" />
<rect x="66" y="69" width="2" height="4" fill="#000000" />
<rect x="15" y="70" width="1" height="29" fill="#000000" />
<rect x="99" y="71" width="1" height="50" fill="#000000" />
<rect x="100" y="71" width="2" height="2" fill="#FFFA4C" />
<rect x="30" y="72" width="1" height="27" fill="#000000" />
<rect x="31" y="72" width="2" height="1" fill="#FFFA4C" />
<rect x="16" y="73" width="3" height="2" fill="#FFF54C" />
<rect x="31" y="73" width="1" height="1" fill="#FFFA4C" />
<rect x="32" y="73" width="1" height="48" fill="#000000" />
<rect x="66" y="73" width="1" height="48" fill="#000000" />
<rect x="67" y="73" width="2" height="2" fill="#FFFA4C" />
<rect x="69" y="73" width="1" height="48" fill="#000000" />
<rect x="75" y="73" width="2" height="1" fill="#FFFA4C" />
<rect x="77" y="73" width="1" height="18" fill="#000000" />
<rect x="100" y="73" width="2" height="8" fill="#000000" />
<rect x="31" y="74" width="1" height="47" fill="#000000" />
<rect x="75" y="74" width="2" height="47" fill="#000000" />
<rect x="16" y="75" width="1" height="24" fill="#000000" />
<rect x="17" y="75" width="1" height="1" fill="#FFF54C" />
<rect x="18" y="75" width="1" height="46" fill="#000000" />
<rect x="56" y="75" width="1" height="46" fill="#000000" />
<rect x="57" y="75" width="1" height="1" fill="#FFFA4C" />
<rect x="67" y="75" width="2" height="9" fill="#000000" />
<rect x="17" y="76" width="1" height="45" fill="#000000" />
<rect x="35" y="76" width="1" height="2" fill="#FFFA4C" />
<rect x="57" y="76" width="1" height="45" fill="#000000" />
<rect x="36" y="77" width="1" height="1" fill="#FFFA4C" />
<rect x="93" y="77" width="2" height="2" fill="#FFF54C" />
<rect x="95" y="77" width="3" height="19" fill="#000000" />
<rect x="4" y="78" width="1" height="2" fill="#FFFA4C" />
<rect x="35" y="78" width="2" height="43" fill="#000000" />
<rect x="38" y="78" width="1" height="2" fill="#FFFA4C" />
<rect x="39" y="78" width="1" height="43" fill="#000000" />
<rect x="47" y="79" width="2" height="1" fill="#FFFA4C" />
<rect x="93" y="79" width="2" height="42" fill="#000000" />
<rect x="119" y="79" width="1" height="2" fill="#FFFA4C" />
<rect x="4" y="80" width="1" height="31" fill="#000000" />
<rect x="38" y="80" width="1" height="16" fill="#000000" />
<rect x="47" y="80" width="1" height="1" fill="#FFFA4C" />
<rect x="48" y="80" width="1" height="41" fill="#000000" />
<rect x="47" y="81" width="1" height="30" fill="#000000" />
<rect x="100" y="81" width="1" height="40" fill="#000000" />
<rect x="101" y="81" width="2" height="2" fill="#FFFA4C" />
<rect x="110" y="81" width="1" height="2" fill="#FFFA4C" />
<rect x="119" y="81" width="1" height="33" fill="#000000" />
<rect x="101" y="83" width="3" height="38" fill="#000000" />
<rect x="104" y="83" width="2" height="1" fill="#FFFA4C" />
<rect x="106" y="83" width="3" height="9" fill="#000000" />
<rect x="110" y="83" width="1" height="16" fill="#000000" />
<rect x="67" y="84" width="2" height="1" fill="#FFFA4C" />
<rect x="104" y="84" width="2" height="8" fill="#000000" />
<rect x="67" y="85" width="2" height="4" fill="#000000" />
<rect x="67" y="89" width="2" height="1" fill="#FFFA4C" />
<rect x="67" y="90" width="2" height="31" fill="#000000" />
<rect x="70" y="91" width="1" height="19" fill="#000000" />
<rect x="71" y="91" width="2" height="2" fill="#FFFA4C" />
<rect x="77" y="91" width="1" height="1" fill="#FFFA4C" />
<rect x="82" y="91" width="1" height="26" fill="#000000" />
<rect x="83" y="91" width="1" height="2" fill="#FFFA4C" />
<rect x="9" y="92" width="1" height="2" fill="#FFFA4C" />
<rect x="10" y="92" width="1" height="27" fill="#000000" />
<rect x="77" y="92" width="1" height="29" fill="#000000" />
<rect x="84" y="92" width="1" height="1" fill="#FFFA4C" />
<rect x="104" y="92" width="1" height="29" fill="#000000" />
<rect x="105" y="92" width="2" height="2" fill="#FFFA4C" />
<rect x="107" y="92" width="2" height="29" fill="#000000" />
<rect x="71" y="93" width="2" height="18" fill="#000000" />
<rect x="83" y="93" width="2" height="15" fill="#000000" />
<rect x="9" y="94" width="1" height="25" fill="#000000" />
<rect x="105" y="94" width="2" height="27" fill="#000000" />
<rect x="6" y="96" width="2" height="1" fill="#FFFA4C" />
<rect x="8" y="96" width="1" height="22" fill="#000000" />
<rect x="38" y="96" width="1" height="2" fill="#FFFA4C" />
<rect x="95" y="96" width="1" height="2" fill="#000000" />
<rect x="96" y="96" width="1" height="4" fill="#FFFA4C" />
<rect x="97" y="96" width="1" height="1" fill="#000000" />
<rect x="6" y="97" width="1" height="1" fill="#FFFA4C" />
<rect x="7" y="97" width="1" height="20" fill="#000000" />
<rect x="37" y="97" width="1" height="1" fill="#FFFA4C" />
<rect x="97" y="97" width="1" height="1" fill="#FFFA4C" />
<rect x="6" y="98" width="1" height="18" fill="#000000" />
<rect x="37" y="98" width="2" height="22" fill="#000000" />
<rect x="95" y="98" width="1" height="2" fill="#FFFA4C" />
<rect x="97" y="98" width="1" height="23" fill="#000000" />
<rect x="15" y="99" width="2" height="1" fill="#FFFA4C" />
<rect x="27" y="99" width="2" height="22" fill="#000000" />
<rect x="29" y="99" width="2" height="1" fill="#FFFA4C" />
<rect x="109" y="99" width="2" height="1" fill="#FFFA4C" />
<rect x="15" y="100" width="2" height="4" fill="#000000" />
<rect x="29" y="100" width="2" height="21" fill="#000000" />
<rect x="95" y="100" width="2" height="7" fill="#000000" />
<rect x="109" y="100" width="2" height="21" fill="#000000" />
<rect x="15" y="104" width="2" height="1" fill="#FFFA4C" />
<rect x="15" y="105" width="2" height="16" fill="#000000" />
<rect x="19" y="106" width="2" height="2" fill="#FFFA4C" />
<rect x="95" y="107" width="1" height="14" fill="#000000" />
<rect x="96" y="107" width="1" height="1" fill="#FFFA4C" />
<rect x="19" y="108" width="2" height="4" fill="#000000" />
<rect x="83" y="108" width="2" height="1" fill="#FFFA4C" />
<rect x="96" y="108" width="1" height="13" fill="#000000" />
<rect x="83" y="109" width="2" height="7" fill="#000000" />
<rect x="70" y="110" width="1" height="2" fill="#FFFA4C" />
<rect x="0" y="111" width="1" height="1" fill="#F0EB48" opacity="0.996078" />
<rect x="4" y="111" width="1" height="1" fill="#111105" />
<rect x="46" y="111" width="2" height="1" fill="#FFFA4C" />
<rect x="71" y="111" width="1" height="1" fill="#FFFA4C" />
<rect x="72" y="111" width="1" height="10" fill="#000000" />
<rect x="120" y="111" width="1" height="1" fill="#111105" />
<rect x="124" y="111" width="1" height="1" fill="#F0EB48" opacity="0.996078" />
<rect x="0" y="112" width="1" height="1" fill="#CCC83D" opacity="0.937255" />
<rect x="4" y="112" width="1" height="1" fill="#57551A" />
<rect x="19" y="112" width="1" height="9" fill="#000000" />
<rect x="20" y="112" width="1" height="2" fill="#FFFA4C" />
<rect x="46" y="112" width="2" height="9" fill="#000000" />
<rect x="70" y="112" width="2" height="4" fill="#000000" />
<rect x="120" y="112" width="1" height="1" fill="#57551A" />
<rect x="124" y="112" width="1" height="1" fill="#CCC83D" opacity="0.937255" />
<rect x="0" y="113" width="1" height="1" fill="#AAA733" opacity="0.752941" />
<rect x="4" y="113" width="1" height="1" fill="#93902C" />
<rect x="42" y="113" width="1" height="2" fill="#FFFA4C" />
<rect x="43" y="113" width="1" height="8" fill="#000000" />
<rect x="120" y="113" width="1" height="1" fill="#93902C" />
<rect x="124" y="113" width="1" height="1" fill="#AAA733" opacity="0.752941" />
<rect x="0" y="114" width="1" height="1" fill="#8D8A2A" opacity="0.341176" />
<rect x="4" y="114" width="1" height="1" fill="#F9F44A" />
<rect x="5" y="114" width="1" height="1" fill="#27260C" />
<rect x="20" y="114" width="1" height="7" fill="#000000" />
<rect x="119" y="114" width="1" height="1" fill="#27260C" />
<rect x="120" y="114" width="1" height="1" fill="#F9F44A" />
<rect x="124" y="114" width="1" height="1" fill="#8D8A2A" opacity="0.341176" />
<rect x="1" y="115" width="1" height="1" fill="#E3DF44" opacity="0.984314" />
<rect x="4" y="115" width="1" height="5" fill="#FFFA4C" />
<rect x="5" y="115" width="1" height="1" fill="#928F2C" />
<rect x="13" y="115" width="1" height="5" fill="#000000" />
<rect x="14" y="115" width="1" height="2" fill="#FFFA4C" />
<rect x="42" y="115" width="1" height="6" fill="#000000" />
<rect x="119" y="115" width="1" height="1" fill="#928F2C" />
<rect x="120" y="115" width="1" height="5" fill="#FFFA4C" />
<rect x="123" y="115" width="1" height="1" fill="#E3DF44" opacity="0.984314" />
<rect x="1" y="116" width="1" height="1" fill="#9D9A2F" opacity="0.611765" />
<rect x="5" y="116" width="1" height="5" fill="#FFFA4C" />
<rect x="6" y="116" width="1" height="1" fill="#62601D" />
<rect x="70" y="116" width="1" height="2" fill="#FFFA4C" />
<rect x="71" y="116" width="1" height="5" fill="#000000" />
<rect x="83" y="116" width="1" height="2" fill="#FFFA4C" />
<rect x="84" y="116" width="1" height="5" fill="#000000" />
<rect x="118" y="116" width="1" height="1" fill="#62601D" />
<rect x="119" y="116" width="1" height="5" fill="#FFFA4C" />
<rect x="123" y="116" width="1" height="1" fill="#9D9A2F" opacity="0.611765" />
<rect x="2" y="117" width="1" height="1" fill="#D7D340" opacity="0.964706" />
<rect x="6" y="117" width="1" height="1" fill="#F9F44A" />
<rect x="7" y="117" width="1" height="1" fill="#62601D" />
<rect x="14" y="117" width="1" height="4" fill="#000000" />
<rect x="50" y="117" width="1" height="4" fill="#000000" />
<rect x="51" y="117" width="1" height="2" fill="#FFFA4C" />
<rect x="82" y="117" width="1" height="1" fill="#FFFA4C" />
<rect x="116" y="117" width="1" height="6" fill="#FFFA4C" />
<rect x="117" y="117" width="1" height="1" fill="#62601D" />
<rect x="118" y="117" width="1" height="1" fill="#F9F44A" />
<rect x="122" y="117" width="1" height="1" fill="#D7D340" opacity="0.964706" />
<rect x="2" y="118" width="1" height="1" fill="#8D8A2A" opacity="0.341176" />
<rect x="6" y="118" width="1" height="4" fill="#FFFA4C" />
<rect x="7" y="118" width="1" height="1" fill="#F9F44A" />
<rect x="8" y="118" width="1" height="1" fill="#62601D" />
<rect x="70" y="118" width="1" height="3" fill="#000000" />
<rect x="82" y="118" width="2" height="3" fill="#000000" />
<rect x="117" y="118" width="2" height="4" fill="#FFFA4C" />
<rect x="122" y="118" width="1" height="1" fill="#8D8A2A" opacity="0.341176" />
<rect x="3" y="119" width="1" height="1" fill="#9D9A2F" opacity="0.611765" />
<rect x="7" y="119" width="2" height="3" fill="#FFFA4C" />
<rect x="9" y="119" width="1" height="1" fill="#928F2C" />
<rect x="10" y="119" width="1" height="1" fill="#27260C" />
<rect x="51" y="119" width="1" height="2" fill="#000000" />
<rect x="113" y="119" width="1" height="1" fill="#000000" />
<rect x="114" y="119" width="1" height="1" fill="#27260C" />
<rect x="115" y="119" width="1" height="1" fill="#928F2C" />
<rect x="121" y="119" width="1" height="1" fill="#9D9A2F" opacity="0.611765" />
<rect x="4" y="120" width="1" height="1" fill="#9D9A2F" opacity="0.611765" />
<rect x="9" y="120" width="1" height="3" fill="#FFFA4C" />
<rect x="10" y="120" width="1" height="1" fill="#F9F44A" />
<rect x="11" y="120" width="1" height="1" fill="#93902C" />
<rect x="12" y="120" width="1" height="1" fill="#57551A" />
<rect x="13" y="120" width="1" height="1" fill="#111105" />
<rect x="37" y="120" width="2" height="5" fill="#FFFA4C" />
<rect x="111" y="120" width="1" height="1" fill="#111105" />
<rect x="112" y="120" width="1" height="1" fill="#57551A" />
<rect x="113" y="120" width="1" height="1" fill="#93902C" />
<rect x="114" y="120" width="1" height="1" fill="#F9F44A" />
<rect x="115" y="120" width="1" height="3" fill="#FFFA4C" />
<rect x="120" y="120" width="1" height="1" fill="#9D9A2F" opacity="0.611765" />
<rect x="5" y="121" width="1" height="1" fill="#9D9A2F" opacity="0.611765" />
<rect x="10" y="121" width="27" height="3" fill="#FFFA4C" />
<rect x="39" y="121" width="76" height="3" fill="#FFFA4C" />
<rect x="119" y="121" width="1" height="1" fill="#9D9A2F" opacity="0.611765" />
<rect x="6" y="122" width="1" height="1" fill="#8D8A2A" opacity="0.341176" />
<rect x="7" y="122" width="1" height="1" fill="#D7D340" opacity="0.964706" />
<rect x="8" y="122" width="1" height="1" fill="#FFFA4C" />
<rect x="117" y="122" width="1" height="1" fill="#D7D340" opacity="0.964706" />
<rect x="118" y="122" width="1" height="1" fill="#8D8A2A" opacity="0.341176" />
<rect x="8" y="123" width="1" height="1" fill="#9D9A2F" opacity="0.611765" />
<rect x="9" y="123" width="1" height="1" fill="#E3DF44" opacity="0.984314" />
<rect x="115" y="123" width="1" height="1" fill="#E3DF44" opacity="0.984314" />
<rect x="116" y="123" width="1" height="1" fill="#9D9A2F" opacity="0.611765" />
<rect x="10" y="124" width="1" height="1" fill="#8D8A2A" opacity="0.341176" />
<rect x="11" y="124" width="1" height="1" fill="#AAA733" opacity="0.752941" />
<rect x="12" y="124" width="1" height="1" fill="#CCC83D" opacity="0.937255" />
<rect x="13" y="124" width="1" height="1" fill="#F0EB48" opacity="0.996078" />
<rect x="14" y="124" width="23" height="1" fill="#FFFA4C" />
<rect x="39" y="124" width="72" height="1" fill="#FFFA4C" />
<rect x="111" y="124" width="1" height="1" fill="#F0EB48" opacity="0.996078" />
<rect x="112" y="124" width="1" height="1" fill="#CCC83D" opacity="0.937255" />
<rect x="113" y="124" width="1" height="1" fill="#AAA733" opacity="0.752941" />
<rect x="114" y="124" width="1" height="1" fill="#8D8A2A" opacity="0.341176" />
</svg>